HIERARCHY
ROOT root
{
	OFFSET	0	13.1	24.9
	CHANNELS 6  Xposition Yposition Zposition Xrotation Yrotation Zrotation
	JOINT spine_1
	{
		OFFSET	0	9.99999	0
		CHANNELS 3  Xrotation Yrotation Zrotation
		JOINT spine_2
		{
			OFFSET	0	112	-10
			CHANNELS 3  Xrotation Yrotation Zrotation
			JOINT spine_3
			{
				OFFSET	0	206.5	19.3
				CHANNELS 3  Xrotation Yrotation Zrotation
				JOINT spine_4
				{
					OFFSET	0	110.4	14.6
					CHANNELS 3  Xrotation Yrotation Zrotation
					JOINT neck_1
					{
						OFFSET	0	71.8	-50.3
						CHANNELS 3  Xrotation Yrotation Zrotation
						JOINT neck_2
						{
							OFFSET	0	86.2	-25.8
							CHANNELS 3  Xrotation Yrotation Zrotation
							JOINT head_ee
							{
								OFFSET	0	179.8	-8.7
								CHANNELS 3  Xrotation Yrotation Zrotation
								End Site
								{
									OFFSET	1	0	0
								}
							}
						}
					}
					JOINT left_clavicle
					{
						OFFSET	-43.2	22.4	-70.8
						CHANNELS 3  Xrotation Yrotation Zrotation
						JOINT left_shoulder
						{
							OFFSET	-93.9	-5.79999	48.7
							CHANNELS 3  Xrotation Yrotation Zrotation
							JOINT left_elbow
							{
								OFFSET	-291.4	-30.8	15.2
								CHANNELS 3  Xrotation Yrotation Zrotation
								JOINT left_lowarm_twist
								{
									OFFSET	-110.7	-3.89999	13.6
									CHANNELS 3  Xrotation Yrotation Zrotation
									JOINT left_hand
									{
										OFFSET	-110.7	-3.89999	13.6
										CHANNELS 3  Xrotation Yrotation Zrotation
										JOINT left_ee
										{
											OFFSET	-80.8	-5.10001	12.1
											CHANNELS 3  Xrotation Yrotation Zrotation
											End Site
											{
												OFFSET	1	0	0
											}
										}
									}
								}
							}
						}
					}
					JOINT right_clavicle
					{
						OFFSET	43.2	22.4	-70.8
						CHANNELS 3  Xrotation Yrotation Zrotation
						JOINT right_shoulder
						{
							OFFSET	93.9	-5.79999	48.7
							CHANNELS 3  Xrotation Yrotation Zrotation
							JOINT right_elbow
							{
								OFFSET	291.4	-30.8	15.2
								CHANNELS 3  Xrotation Yrotation Zrotation
								JOINT right_lowarm_twist
								{
									OFFSET	110.7	-3.89999	13.6
									CHANNELS 3  Xrotation Yrotation Zrotation
									JOINT right_hand
									{
										OFFSET	110.7	-3.89999	13.6
										CHANNELS 3  Xrotation Yrotation Zrotation
										JOINT right_ee
										{
											OFFSET	80.8	-5.10001	12.1
											CHANNELS 3  Xrotation Yrotation Zrotation
											End Site
											{
												OFFSET	1	0	0
											}
										}
									}
								}
							}
						}
					}
				}
			}
		}
	}
	JOINT left_hip
	{
		OFFSET	-82.8	-127.5	0.300001
		CHANNELS 3  Xrotation Yrotation Zrotation
		JOINT left_knee
		{
			OFFSET	-28.2	-396.7	2.2
			CHANNELS 3  Xrotation Yrotation Zrotation
			JOINT left_ankle
			{
				OFFSET	-11.7	-411.3	35.4
				CHANNELS 3  Xrotation Yrotation Zrotation
				JOINT left_toes
				{
					OFFSET	0	-60	-88.6
					CHANNELS 3  Xrotation Yrotation Zrotation
					JOINT left_foot_ee
					{
						OFFSET	-22.5	-16.5	-42.2
						CHANNELS 3  Xrotation Yrotation Zrotation
						End Site
						{
							OFFSET	1	0	0
						}
					}
				}
			}
		}
	}
	JOINT right_hip
	{
		OFFSET	82.8	-127.5	0.300001
		CHANNELS 3  Xrotation Yrotation Zrotation
		JOINT right_knee
		{
			OFFSET	28.2	-396.7	2.2
			CHANNELS 3  Xrotation Yrotation Zrotation
			JOINT right_ankle
			{
				OFFSET	11.7	-411.3	35.4
				CHANNELS 3  Xrotation Yrotation Zrotation
				JOINT right_toes
				{
					OFFSET	0	-60	-88.6
					CHANNELS 3  Xrotation Yrotation Zrotation
					JOINT right_foot_ee
					{
						OFFSET	22.5	-16.5	-42.2
						CHANNELS 3  Xrotation Yrotation Zrotation
						End Site
						{
							OFFSET	1	0	0
						}
					}
				}
			}
		}
	}
}
MOTION
Frames: 10
Frame Time: 0.02
840.917 741.307 -1410.32 16.7733 61.0881 -12.4168 -3.20362 -0.358463 -0.816043 -3.2033 -0.305811 -0.837197 -3.19818 -0.0735987 -0.888255 -3.19922 -0.212953 -0.865487 -0.9342 -7.57117 4.10975 -0.660273 -16.8829 3.52017 -0.0 0.0 -0.0 8.96763 -6.69241 17.6341 10.4995 -20.2908 49.6372 2.50858 -51.1677 1.20119 -11.0558 -0.518039 1.31298 -2.57915 7.38192 -13.8195 -0.0 0.0 -0.0 4.749 -9.58166 -9.39859 -16.152 22.3779 -58.921 0.472508 13.1741 -0.0545629 13.302 -0.275558 1.67307 0.986742 -13.5915 -11.845 0.0 0.0 0.0 -2.63797 -15.5459 4.40359 -9.66398 0.27567 1.45574 31.0657 27.2229 -4.28944 -12.6506 0.0 0.0 -0.0 0.0 -0.0 5.48913 6.85126 0.154168 -15.3623 -0.322039 -2.32847 31.5065 -12.0202 4.06948 -30.6343 0.0 0.0 0.0 0.0 0.0 
838.054 740.416 -1412.13 15.3994 61.553 -11.2136 -2.88692 -0.342862 -0.80218 -2.88661 -0.291124 -0.822369 -2.88184 -0.0681553 -0.869709 -2.88284 -0.204649 -0.848033 -1.16128 -6.87334 3.87731 -0.935701 -15.4531 3.31486 -0.0 0.0 -0.0 9.02561 -8.50198 17.7419 10.309 -20.5623 49.2214 2.409 -50.0302 1.12424 -9.32876 -0.420517 1.11475 -2.19358 7.29375 -11.2922 -0.0 0.0 -0.0 4.49461 -9.60215 -8.95185 -16.2318 22.468 -59.3081 0.49627 13.8117 -0.0601072 14.4435 -0.280977 1.81876 1.33132 -13.7899 -14.1361 0.0 0.0 0.0 -2.0245 -14.3696 4.869 -9.94129 0.279935 1.49808 31.6334 27.1581 -4.35285 -14.2022 0.0 0.0 -0.0 0.0 -0.0 4.4479 7.6215 0.527519 -9.34146 -0.270452 -1.40653 26.5166 -8.69022 3.50702 -32.3355 0.0 0.0 0.0 0.0 0.0 
826.813 738.217 -1417.94 13.3204 60.7273 -9.64046 -2.80896 -0.243645 -0.884625 -2.80854 -0.186863 -0.898334 -2.80498 0.0510099 -0.916143 -2.80614 -0.0943118 -0.912702 0.612099 -8.08805 1.90114 0.84514 -15.9219 1.29072 -0.0 0.0 -0.0 9.19323 -6.68813 18.1141 10.5819 -20.3449 49.3753 2.47486 -50.7886 1.17499 -9.05182 -0.405438 1.08269 -2.17855 7.27233 -11.203 -0.0 0.0 -0.0 4.26605 -9.69269 -8.55285 -16.3089 22.4167 -59.1899 0.521997 14.4983 -0.0663988 14.7563 -0.281956 1.8587 1.70837 -14.1164 -16.7036 0.0 0.0 0.0 -1.67987 -13.8375 4.65689 -9.61995 0.274974 1.44902 31.6287 26.8146 -4.34237 -15.6556 0.0 0.0 -0.0 0.0 -0.0 4.30373 9.27487 0.437661 -3.52216 -0.128909 -0.525085 24.8117 -9.22425 3.31213 -35.4656 0.0 0.0 0.0 0.0 0.0 
826.383 739.326 -1422.32 11.2557 60.9624 -7.53666 -2.52653 -0.178156 -0.930728 -2.52605 -0.118573 -0.940178 -2.5235 0.123173 -0.939586 -2.52473 -0.0267562 -0.947247 -0.596784 -8.48825 1.73932 -0.384154 -16.6013 0.919934 -0.0 0.0 -0.0 9.28734 -6.39449 18.3147 10.7348 -20.2221 49.9538 2.44428 -50.4395 1.15136 -7.05703 -0.30144 0.849735 -2.07834 7.271 -10.5397 -0.0 0.0 -0.0 4.32621 -9.67677 -8.65788 -16.1506 22.6055 -59.8224 0.52925 14.6911 -0.0682265 13.296 -0.275522 1.6723 1.29401 -14.0584 -13.9881 0.0 0.0 0.0 -1.02174 -13.6858 4.0868 -9.35727 0.270715 1.40894 32.3924 26.8815 -4.43097 -15.1486 0.0 0.0 -0.0 0.0 -0.0 5.52725 9.39501 -0.445589 -3.35634 -0.123567 -0.500197 25.217 -10.5131 3.36349 -33.6838 0.0 0.0 0.0 0.0 0.0 
822.761 740.3 -1425.38 9.12809 60.9314 -5.56974 -2.18327 -0.138655 -0.763021 -2.18295 -0.089822 -0.770297 -2.18137 0.103416 -0.76859 -2.1822 -0.019263 -0.775276 -0.780611 -8.68603 1.58184 -0.570863 -16.8444 0.705084 -0.0 0.0 -0.0 9.31864 -5.62402 18.3786 10.4971 -19.9168 50.1455 2.44139 -50.4063 1.14913 -6.16469 -0.257563 0.744398 -1.97192 7.52349 -9.71489 -0.0 0.0 -0.0 4.2203 -10.2719 -8.48486 -15.8995 22.5734 -60.1197 0.544336 15.0909 -0.0721033 13.9351 -0.278922 1.75386 1.42672 -13.6177 -14.6954 0.0 0.0 0.0 -0.322377 -13.0547 3.91939 -8.90576 0.262964 1.34009 32.4505 26.6481 -4.43068 -16.1445 0.0 0.0 -0.0 0.0 -0.0 5.38162 10.1051 -0.159139 0.287708 0.0119542 0.0425325 20.9182 -8.16656 2.84442 -35.4329 0.0 0.0 0.0 0.0 0.0 
818.223 736.425 -1428.6 7.86936 61.1876 -4.95492 -2.01478 -0.0244008 -0.702836 -2.0145 0.0203708 -0.702964 -2.01451 0.191576 -0.676663 -2.01514 0.0823085 -0.698426 -0.109885 -10.4318 -1.57663 0.0959412 -17.3396 -2.78634 -0.0 0.0 -0.0 9.33937 -5.58695 18.4224 9.87 -19.4761 50.7838 2.49709 -51.0392 1.19225 -6.18554 -0.258569 0.746866 -1.7134 5.27566 -9.06994 -0.0 0.0 -0.0 4.35999 -9.65397 -8.71663 -15.3387 22.4116 -60.188 0.534182 14.8219 -0.0694826 14.324 -0.280546 1.8035 1.50526 -13.1929 -15.0606 0.0 0.0 0.0 0.403603 -13.4423 4.03863 -9.30983 0.269926 1.4017 37.0875 25.9283 -4.90815 -16.3936 0.0 0.0 -0.0 0.0 -0.0 5.72473 12.958 0.792199 -0.545153 -0.0220634 -0.0807502 20.4796 -7.23484 2.78998 -35.8297 0.0 0.0 0.0 0.0 0.0 
819.066 741.461 -1437.34 7.73678 61.1218 -4.99654 -2.4074 0.00984679 -0.678864 -2.40714 0.0530237 -0.676862 -2.40754 0.221269 -0.641869 -2.40809 0.117123 -0.668757 -0.494662 -9.66192 -0.0611772 -0.291912 -17.2413 -1.12493 -0.0 0.0 -0.0 9.32404 -3.97186 18.3726 9.62735 -19.4137 51.0312 2.49404 -51.005 1.18987 -6.38065 -0.268031 0.769953 -1.66981 5.46453 -8.69229 -0.0 0.0 -0.0 4.65328 -9.4414 -9.22853 -14.6428 22.5958 -60.7071 0.613073 16.8936 -0.0910432 15.1513 -0.28288 1.90914 1.62507 -11.6124 -15.2988 0.0 0.0 0.0 0.368092 -12.0247 3.62343 -9.22635 0.268524 1.38897 35.5722 26.2581 -4.76022 -16.3907 0.0 0.0 -0.0 0.0 -0.0 5.1748 12.8242 -0.0407782 -0.198978 -0.00814193 -0.0294496 20.6847 -7.54223 2.81532 -37.2458 0.0 0.0 0.0 0.0 0.0 
810.859 745.51 -1445.04 7.90592 61.8977 -4.58673 -2.58359 -0.0272159 -0.749703 -2.58327 0.0205434 -0.749916 -2.58322 0.21038 -0.720096 -2.58393 0.0940169 -0.744283 -0.538133 -10.4653 0.527019 -0.27911 -19.1625 -0.581407 -0.0 0.0 -0.0 9.2998 -5.28166 18.3364 8.26066 -18.6982 51.6701 2.47202 -50.7564 1.17279 -6.14912 -0.256812 0.742554 -1.50673 5.52975 -7.58218 -0.0 0.0 -0.0 4.51936 -9.39095 -8.99203 -14.1865 22.7533 -60.9544 0.692459 18.9332 -0.115464 15.029 -0.282631 1.89353 1.63745 -11.7318 -15.4223 0.0 0.0 0.0 -0.198382 -13.2572 2.98113 -10.0977 0.28225 1.52197 35.0638 26.4634 -4.71236 -16.8675 0.0 0.0 -0.0 0.0 -0.0 4.57162 12.7464 -0.713886 -0.0701809 -0.00288343 -0.0103839 19.5012 -7.38086 2.66869 -37.0626 0.0 0.0 0.0 0.0 0.0 
807.401 750.84 -1456.15 7.93536 62.9448 -4.72791 -2.5884 -0.31297 -0.670397 -2.58819 -0.269677 -0.688952 -2.58455 -0.0858145 -0.734856 -2.58525 -0.200791 -0.712083 0.432912 -10.0281 2.21186 0.781538 -19.6422 1.43413 -0.0 0.0 -0.0 9.01093 -5.43486 17.7265 6.89363 -18.1462 52.2118 2.33838 -49.1893 1.07045 -5.10674 -0.20768 0.618656 -1.2741 5.55968 -6.03337 -0.0 0.0 -0.0 4.61392 -9.23927 -9.15646 -13.8016 23.8794 -60.9872 0.743825 20.2273 -0.13268 15.363 -0.283232 1.93619 1.42102 -10.2534 -13.4674 0.0 0.0 0.0 -0.468059 -12.4963 2.37095 -10.3325 0.285601 1.55784 35.5033 26.5029 -4.76059 -16.5317 0.0 0.0 -0.0 0.0 -0.0 4.19853 12.6565 -1.12452 -0.488017 -0.0197869 -0.0722774 16.7942 -7.61394 2.32569 -36.877 0.0 0.0 0.0 0.0 0.0 
804.603 754.663 -1465.59 9.12758 63.8953 -5.92074 -2.90753 -0.549248 -0.807281 -2.9073 -0.496768 -0.840593 -2.89934 -0.2618 -0.940651 -2.90035 -0.407067 -0.887506 2.0222 -10.1098 3.63334 2.53635 -20.8076 3.26521 -0.0 0.0 -0.0 8.86268 -5.29779 17.4137 5.35701 -17.6166 53.0131 2.21731 -47.6781 0.979853 -4.0015 -0.158061 0.486347 -0.984041 5.03539 -4.35794 -0.0 0.0 -0.0 4.64798 -9.57389 -9.22087 -13.617 24.6795 -61.081 0.78223 21.181 -0.146258 15.6515 -0.283551 1.97303 1.25293 -9.2375 -11.9864 0.0 0.0 0.0 -0.837983 -12.2318 1.92584 -10.7563 0.291282 1.62263 34.6676 26.8169 -4.68068 -17.2764 0.0 0.0 -0.0 0.0 -0.0 4.02957 12.8172 -1.27309 -2.62344 -0.0990923 -0.390383 14.9964 -7.6687 2.09217 -37.2627 0.0 0.0 0.0 0.0 0.0 
